# xmcd
#
# Track frame offsets:
#	150
#	18794
#	31535
#	51537
#	67147
#	79521
#	96302
#	110352
#	128043
#	138965
#	157362
#	175045
#
# Disc length: 2571 seconds
#
# Revision: 0
# Processed by: cddbd v1.5.2PL0 Copyright (c) Steve Scherf et al.
# Submitted via: audiograbber 1.83.01
#
DISCID=9a0a090c
DTITLE=Es war Mord - Es war Mord
DYEAR=2017
DGENRE=Punkrock
TTITLE0=01 - Es War Mord - Gespenster
TTITLE1=02 - Es War Mord - Blut
TTITLE2=03 - Es War Mord - Substanbul
TTITLE3=04 - Es War Mord - Rosige Gesichter
TTITLE4=05 - Es War Mord - Gier
TTITLE5=06 - Es War Mord - Unterwegs
TTITLE6=07 - Es War Mord - Freitag
TTITLE7=08 - Es War Mord - Schlecht
TTITLE8=09 - Es War Mord - Hobel
TTITLE9=10 - Es War Mord - Hirn
TTITLE10=11 - Es War Mord - Nie wieder
TTITLE11=12 - Es War Mord - Satt sein
EXTD=
EXTT0=
EXTT1=
EXTT2=
EXTT3=
EXTT4=
EXTT5=
EXTT6=
EXTT7=
EXTT8=
EXTT9=
EXTT10=
EXTT11=
PLAYORDER=
